<?xml version="1.0" encoding="utf-8"?>
<!-- Generator: Adobe Illustrator 18.1.1, SVG Export Plug-In . SVG Version: 6.00 Build 0)  -->
<svg version="1.1" id="Layer_1" xmlns="http://www.w3.org/2000/svg" xmlns:xlink="http://www.w3.org/1999/xlink" x="0px" y="0px"
	 viewBox="0 0 50 50" enable-background="new 0 0 50 50" xml:space="preserve">
<path fill="#D9D9D9" d="M48.3,0H1.8C0.8,0,0,0.8,0,1.8v46.5c0,1,0.8,1.8,1.8,1.8h16.6c0-8.1,0.1-16,0.1-24H14v-6h4v-7.6
	c0,0,0.2-4.3,4.5-7.3c1-0.7,2.1-1.3,3.2-1.7c3-1.3,5.5-1.4,7-1.4C33.9,2,36,2,38,2.6c0,2.2,0,4.3,0,6.5c0-0.3-1.5-0.6-2.7-0.8
	c-1.1-0.2-1.5-0.3-2.3-0.3c-1.2,0-2.2,0.4-3.4,1.3c-1.2,0.9-1.7,2.1-1.7,3.5V20h8.1c-0.3,2-0.6,3.8-0.8,5.9c-2.6,0-5.1,0-7.7,0
	c0,8.1,0,16.1,0,24.2h20.7c1,0,1.8-0.8,1.8-1.8V1.8C50,0.8,49.2,0,48.3,0z"/>
</svg>
