<?xml version="1.0" encoding="utf-8"?>
<!-- Generator: Adobe Illustrator 18.1.1, SVG Export Plug-In . SVG Version: 6.00 Build 0)  -->
<svg version="1.1" id="Layer_1" xmlns="http://www.w3.org/2000/svg" xmlns:xlink="http://www.w3.org/1999/xlink" x="0px" y="0px"
	 viewBox="0 0 50 50" enable-background="new 0 0 50 50" xml:space="preserve">
<g>
	<path fill="#D9D9D9" d="M25.8,6.4c-9.6,0-17.5,7.8-17.5,17.5c0,4.2,1.5,8,4,11.1l0,0L12,45.1l10-4.2c1.2,0.3,2.5,0.4,3.8,0.4
		c9.6,0,17.5-7.8,17.5-17.5S35.4,6.4,25.8,6.4z M31.1,34.8c-6.6-0.4-16.1-8.1-16.8-15.5c0,0,0.4-5.5,3.8-5.9
		c3.4-0.4,3.5,1.2,5.1,5.5c0,0,0.6,1.4-1.4,3.5c0,0,1.8,3.7,6.3,5.5c0,0,1.9-2.8,2.8-2.6c1,0.2,4,1.4,5.6,2.3
		C38.1,28.6,37.6,34.6,31.1,34.8z"/>
	<path fill="#D9D9D9" d="M47.9,0H2.1C0.9,0,0,0.9,0,2.1v45.9C0,49.1,0.9,50,2.1,50h45.9c1.1,0,2.1-0.9,2.1-2.1V2.1
		C50,0.9,49.1,0,47.9,0z M25.8,43.5c-1.1,0-2.2-0.1-3.3-0.3l-12.6,5c0-4.3,0-8.6,0-12.8c-2.4-3.2-3.7-7.2-3.7-11.5
		C6.1,13,14.9,4.3,25.8,4.3c10.8,0,19.6,8.8,19.6,19.6C45.4,34.7,36.6,43.5,25.8,43.5z"/>
</g>
</svg>
