<?xml version="1.0" encoding="utf-8"?>
<!-- Generator: Adobe Illustrator 18.1.1, SVG Export Plug-In . SVG Version: 6.00 Build 0)  -->
<svg version="1.1" id="Layer_1" xmlns="http://www.w3.org/2000/svg" xmlns:xlink="http://www.w3.org/1999/xlink" x="0px" y="0px"
	 viewBox="0 0 50 50" enable-background="new 0 0 50 50" xml:space="preserve">
<g>
	<path fill="#D9D9D9" d="M48.6,0H1.4C0.6,0,0,0.6,0,1.4v47.3C0,49.4,0.6,50,1.4,50h47.3c0.8,0,1.4-0.6,1.4-1.4V1.4
		C50,0.6,49.4,0,48.6,0z M36.5,43.3l-12.3-14L11.5,44c-1.1,0-2.1,0-3.2,0c4.7-5.5,9.5-11.1,14.2-16.7L3.9,6h10l13.6,15.6
		c4.5-5.2,9-10.4,13.4-15.6c1.1,0,2.1,0,3.2,0l-15,17.5l17.4,20L36.5,43.3z"/>
	<polygon fill="#D9D9D9" points="9.6,11 33.5,38.2 40.8,38.5 16.9,11 	"/>
</g>
</svg>
